<svg width="41" height="40" viewBox="0 0 41 40" fill="none" xmlns="http://www.w3.org/2000/svg">
<path d="M26.3739 5H26.1645C24.5978 5.21077 22.9625 6.15794 22.0706 7.22235C21.1088 8.36448 20.3151 9.82804 20.4547 11.9134C22.5476 12.0807 23.8416 10.9781 24.7865 9.84122C25.7496 8.69645 26.542 7.11564 26.3739 5Z" fill="black"/>
<path d="M32.5 27.0802V27.0209C30.4524 26.0302 28.8133 24.3493 28.5857 21.4762C28.3298 18.3133 29.828 16.4611 31.7231 15.232C30.7407 13.667 29.1507 12.6527 26.9104 12.3075C25.1895 12.0436 23.852 12.5421 22.5215 13.038C22.4109 13.0792 22.3003 13.1204 22.1895 13.1612C22.0698 13.2057 21.9504 13.2547 21.8313 13.3037C21.4605 13.456 21.0922 13.6073 20.7223 13.6183C20.1572 13.6358 19.5675 13.3801 19.0458 13.1538C18.9016 13.0913 18.7626 13.031 18.6308 12.9794C17.9883 12.7317 17.2554 12.4814 16.5379 12.3681C14.8639 12.1073 13.3605 12.6909 12.2669 13.3759C10.1947 14.6643 8.63573 17.3226 8.5 20.5923V21.9346C8.82059 26.5032 10.5437 30.0732 12.7736 32.8369C13.5298 33.7722 14.5679 34.8103 15.8541 35H16.4513C17.1998 34.8925 17.8209 34.6483 18.4362 34.4064C19.2608 34.0822 20.0751 33.762 21.1722 33.7801C22.0731 33.7959 22.8163 34.0903 23.5532 34.3823C24.2978 34.6772 25.036 34.9697 25.9241 34.9697C27.8691 34.9697 29.0003 33.3741 29.9104 32.0903C29.9572 32.0243 30.0034 31.9591 30.0491 31.895C31.0729 30.4512 31.9118 28.8955 32.5 27.0802Z" fill="black"/>
</svg>
