<svg width="41" height="40" viewBox="0 0 41 40" fill="none" xmlns="http://www.w3.org/2000/svg">
<g clip-path="url(#clip0_45_825)">
<path d="M34.3673 17.3912L22.1307 17.3906C21.5903 17.3906 21.1523 17.8286 21.1523 18.3689V22.278C21.1523 22.8182 21.5903 23.2562 22.1306 23.2562H29.0216C28.267 25.2145 26.8586 26.8545 25.0618 27.8965L28.0001 32.9829C32.7135 30.257 35.5001 25.4741 35.5001 20.1199C35.5001 19.3575 35.4439 18.8126 35.3315 18.1989C35.2461 17.7327 34.8413 17.3912 34.3673 17.3912Z" fill="#167EE6"/>
<path d="M20.4998 29.1296C17.1275 29.1296 14.1835 27.2871 12.6024 24.5605L7.51611 27.4922C10.1045 31.9782 14.9533 34.9992 20.4998 34.9992C23.2207 34.9992 25.7881 34.2666 27.9998 32.9899V32.9829L25.0615 27.8964C23.7174 28.6759 22.1621 29.1296 20.4998 29.1296Z" fill="#12B347"/>
<path d="M28 32.99V32.983L25.0617 27.8965C23.7177 28.676 22.1625 29.1297 20.5 29.1297V34.9992C23.2209 34.9992 25.7884 34.2667 28 32.99Z" fill="#0F993E"/>
<path d="M11.3695 19.9989C11.3695 18.3366 11.8232 16.7815 12.6025 15.4375L7.51626 12.5059C6.23254 14.7106 5.5 17.271 5.5 19.9989C5.5 22.7267 6.23254 25.2872 7.51626 27.4918L12.6025 24.5602C11.8232 23.2162 11.3695 21.6611 11.3695 19.9989Z" fill="#FFD500"/>
<path d="M20.4998 10.8695C22.6989 10.8695 24.7188 11.6509 26.2966 12.9507C26.6858 13.2713 27.2515 13.2482 27.6081 12.8917L30.3778 10.122C30.7823 9.71742 30.7535 9.05526 30.3213 8.68037C27.6779 6.38708 24.2385 5 20.4998 5C14.9533 5 10.1045 8.02091 7.51611 12.5069L12.6024 15.4386C14.1835 12.7121 17.1275 10.8695 20.4998 10.8695Z" fill="#FF4B26"/>
<path d="M26.2968 12.9507C26.686 13.2713 27.2518 13.2482 27.6083 12.8917L30.378 10.122C30.7825 9.71742 30.7536 9.05526 30.3216 8.68037C27.6781 6.38703 24.2387 5 20.5 5V10.8695C22.699 10.8695 24.719 11.6509 26.2968 12.9507Z" fill="#D93F21"/>
</g>
<defs>
<clipPath id="clip0_45_825">
<rect width="40" height="40" fill="white" transform="translate(0.5)"/>
</clipPath>
</defs>
</svg>
