<svg width="24" height="24" viewBox="0 0 24 24" fill="none" xmlns="http://www.w3.org/2000/svg">
<path d="M4.03116 3.00009L3 4.03125L19.9689 21.0002L21.0001 19.969L4.03116 3.00009Z" fill="black"/>
<path d="M12.1567 9.00391L14.996 11.8431C14.9565 11.1029 14.6447 10.4034 14.1206 9.87929C13.5964 9.35514 12.8969 9.04335 12.1567 9.00391V9.00391Z" fill="black"/>
<path d="M11.8436 14.9955L9.00439 12.1562C9.04384 12.8965 9.35563 13.5959 9.87978 14.1201C10.4039 14.6442 11.1034 14.956 11.8436 14.9955Z" fill="black"/>
<path d="M12 16.5002C11.3077 16.5002 10.6248 16.3405 10.0043 16.0335C9.38376 15.7265 8.84246 15.2805 8.42248 14.7302C8.00249 14.1798 7.71514 13.54 7.58278 12.8605C7.45043 12.181 7.47664 11.4801 7.65937 10.8123L4.42172 7.57422C3.09938 8.78547 1.83937 10.3661 0.75 12.0002C1.98844 14.0627 3.6825 16.1833 5.44687 17.3992C7.47094 18.7933 9.67172 19.5002 11.9887 19.5002C13.255 19.501 14.5117 19.2822 15.7031 18.8533L13.1902 16.3408C12.8024 16.4469 12.4021 16.5005 12 16.5002V16.5002Z" fill="black"/>
<path d="M12.0001 7.5C12.6924 7.49997 13.3753 7.65966 13.9958 7.96665C14.6163 8.27365 15.1576 8.71966 15.5776 9.27C15.9976 9.82034 16.285 10.4602 16.4173 11.1397C16.5497 11.8192 16.5235 12.5201 16.3407 13.1878L19.6529 16.5C21.0193 15.2695 22.2812 13.6144 23.2501 12C22.0135 9.96422 20.3017 7.84875 18.5073 6.61781C16.4579 5.2125 14.2646 4.5 11.9888 4.5C10.7366 4.5018 9.49477 4.72869 8.32275 5.16984L10.8123 7.65937C11.1993 7.55344 11.5988 7.49984 12.0001 7.5V7.5Z" fill="black"/>
</svg>
